<svg width="398" height="305" viewBox="0 0 398 305" fill="none" xmlns="http://www.w3.org/2000/svg">
<g id="Group 6">
<path id="NF" d="M93.9 75V224.6H118.1V225H73.7V224.6H93.5V75.4H73.7V75H93.9ZM212.6 75V75.4H191.6V227H191.2L93.7 75H116.6L191.2 194.6V75.4H167.2V75H212.6ZM294.489 171.4C294.489 166.933 293.489 163.167 291.489 160.1C289.489 156.967 286.522 154.6 282.589 153C278.656 151.4 273.789 150.6 267.989 150.6H254.989V150.2H267.989C273.789 150.2 278.656 149.5 282.589 148.1C286.522 146.633 289.489 144.433 291.489 141.5C293.489 138.567 294.489 134.867 294.489 130.4H294.889V171.4H294.489ZM324.989 75V116H324.589C324.589 108.867 323.422 102.233 321.089 96.1C318.756 89.9 315.089 84.9 310.089 81.1C305.156 77.3 298.789 75.4 290.989 75.4H258.989V224.6H278.989V225H221.989V224.6H239.889V75.4H221.989V75H324.989Z" fill="#4B4949" fill-opacity="0.72"/>
<path id="NECO FASHION" d="M78.996 162H77.036L66.2 145.536V162H64.24V142.428H66.2L77.036 158.864V142.428H78.996V162ZM92.3953 144.024V151.332H99.8153V152.956H92.3953V160.376H100.655V162H90.4353V142.4H100.655V144.024H92.3953ZM110.621 152.2C110.621 150.277 111.041 148.56 111.881 147.048C112.721 145.517 113.869 144.332 115.325 143.492C116.781 142.633 118.405 142.204 120.197 142.204C122.381 142.204 124.248 142.727 125.797 143.772C127.365 144.799 128.504 146.255 129.213 148.14H126.917C126.357 146.815 125.499 145.779 124.341 145.032C123.203 144.285 121.821 143.912 120.197 143.912C118.76 143.912 117.463 144.248 116.305 144.92C115.167 145.592 114.271 146.563 113.617 147.832C112.964 149.083 112.637 150.539 112.637 152.2C112.637 153.861 112.964 155.317 113.617 156.568C114.271 157.819 115.167 158.78 116.305 159.452C117.463 160.124 118.76 160.46 120.197 160.46C121.821 160.46 123.203 160.096 124.341 159.368C125.499 158.621 126.357 157.595 126.917 156.288H129.213C128.504 158.155 127.365 159.601 125.797 160.628C124.229 161.655 122.363 162.168 120.197 162.168C118.405 162.168 116.781 161.748 115.325 160.908C113.869 160.049 112.721 158.864 111.881 157.352C111.041 155.84 110.621 154.123 110.621 152.2ZM148.911 162.196C147.1 162.196 145.458 161.776 143.983 160.936C142.508 160.077 141.342 158.892 140.483 157.38C139.643 155.849 139.223 154.123 139.223 152.2C139.223 150.277 139.643 148.56 140.483 147.048C141.342 145.517 142.508 144.332 143.983 143.492C145.458 142.633 147.1 142.204 148.911 142.204C150.74 142.204 152.392 142.633 153.867 143.492C155.342 144.332 156.499 145.517 157.339 147.048C158.179 148.56 158.599 150.277 158.599 152.2C158.599 154.123 158.179 155.849 157.339 157.38C156.499 158.892 155.342 160.077 153.867 160.936C152.392 161.776 150.74 162.196 148.911 162.196ZM148.911 160.488C150.367 160.488 151.674 160.152 152.831 159.48C153.988 158.808 154.903 157.847 155.575 156.596C156.247 155.327 156.583 153.861 156.583 152.2C156.583 150.539 156.247 149.083 155.575 147.832C154.903 146.581 153.988 145.62 152.831 144.948C151.674 144.276 150.367 143.94 148.911 143.94C147.455 143.94 146.148 144.276 144.991 144.948C143.834 145.62 142.919 146.581 142.247 147.832C141.575 149.083 141.239 150.539 141.239 152.2C141.239 153.861 141.575 155.327 142.247 156.596C142.919 157.847 143.834 158.808 144.991 159.48C146.148 160.152 147.455 160.488 148.911 160.488ZM194.453 142.428V144.052H185.829V151.36H193.109V152.984H185.829V162H183.869V142.428H194.453ZM216.018 157.352H207.114L205.406 162H203.334L210.474 142.68H212.686L219.798 162H217.726L216.018 157.352ZM215.43 155.728L211.566 145.144L207.702 155.728H215.43ZM235.879 162.196C234.591 162.196 233.452 161.972 232.463 161.524C231.492 161.076 230.727 160.451 230.167 159.648C229.607 158.845 229.308 157.949 229.271 156.96H231.343C231.436 157.912 231.856 158.752 232.603 159.48C233.35 160.189 234.442 160.544 235.879 160.544C237.204 160.544 238.25 160.208 239.015 159.536C239.799 158.845 240.191 157.977 240.191 156.932C240.191 156.092 239.976 155.42 239.547 154.916C239.118 154.393 238.586 154.011 237.951 153.768C237.316 153.507 236.439 153.227 235.319 152.928C234.012 152.573 232.976 152.228 232.211 151.892C231.446 151.556 230.792 151.033 230.251 150.324C229.71 149.615 229.439 148.653 229.439 147.44C229.439 146.432 229.7 145.536 230.223 144.752C230.746 143.949 231.483 143.324 232.435 142.876C233.387 142.428 234.479 142.204 235.711 142.204C237.522 142.204 238.978 142.652 240.079 143.548C241.199 144.425 241.843 145.564 242.011 146.964H239.883C239.752 146.161 239.314 145.452 238.567 144.836C237.82 144.201 236.812 143.884 235.543 143.884C234.367 143.884 233.387 144.201 232.603 144.836C231.819 145.452 231.427 146.301 231.427 147.384C231.427 148.205 231.642 148.868 232.071 149.372C232.5 149.876 233.032 150.259 233.667 150.52C234.32 150.781 235.198 151.061 236.299 151.36C237.568 151.715 238.595 152.069 239.379 152.424C240.163 152.76 240.826 153.283 241.367 153.992C241.908 154.701 242.179 155.653 242.179 156.848C242.179 157.763 241.936 158.631 241.451 159.452C240.966 160.273 240.247 160.936 239.295 161.44C238.343 161.944 237.204 162.196 235.879 162.196ZM267.499 142.428V162H265.539V152.844H254.927V162H252.967V142.428H254.927V151.22H265.539V142.428H267.499ZM280.93 142.428V162H278.97V142.428H280.93ZM301.161 162.196C299.35 162.196 297.708 161.776 296.233 160.936C294.758 160.077 293.592 158.892 292.733 157.38C291.893 155.849 291.473 154.123 291.473 152.2C291.473 150.277 291.893 148.56 292.733 147.048C293.592 145.517 294.758 144.332 296.233 143.492C297.708 142.633 299.35 142.204 301.161 142.204C302.99 142.204 304.642 142.633 306.117 143.492C307.592 144.332 308.749 145.517 309.589 147.048C310.429 148.56 310.849 150.277 310.849 152.2C310.849 154.123 310.429 155.849 309.589 157.38C308.749 158.892 307.592 160.077 306.117 160.936C304.642 161.776 302.99 162.196 301.161 162.196ZM301.161 160.488C302.617 160.488 303.924 160.152 305.081 159.48C306.238 158.808 307.153 157.847 307.825 156.596C308.497 155.327 308.833 153.861 308.833 152.2C308.833 150.539 308.497 149.083 307.825 147.832C307.153 146.581 306.238 145.62 305.081 144.948C303.924 144.276 302.617 143.94 301.161 143.94C299.705 143.94 298.398 144.276 297.241 144.948C296.084 145.62 295.169 146.581 294.497 147.832C293.825 149.083 293.489 150.539 293.489 152.2C293.489 153.861 293.825 155.327 294.497 156.596C295.169 157.847 296.084 158.808 297.241 159.48C298.398 160.152 299.705 160.488 301.161 160.488ZM336.191 162H334.231L323.395 145.536V162H321.435V142.428H323.395L334.231 158.864V142.428H336.191V162Z" fill="black"/>
<line id="Line 4" y1="151.5" x2="41" y2="151.5" stroke="#6D6B6B" stroke-opacity="0.74"/>
<line id="Line 5" x1="357" y1="151.5" x2="398" y2="151.5" stroke="#6D6B6B" stroke-opacity="0.74"/>
<circle id="1" cx="125" cy="41" r="5" fill="#3D3B3B" fill-opacity="0.76"/>
<circle id="4" cx="185" cy="41" r="5" fill="#3D3B3B" fill-opacity="0.76"/>
<circle id="7" cx="245" cy="41" r="5" fill="#3D3B3B" fill-opacity="0.76"/>
<circle id="2" cx="145" cy="41" r="5" fill="#3D3B3B" fill-opacity="0.76"/>
<circle id="5" cx="205" cy="41" r="5" fill="#3D3B3B" fill-opacity="0.76"/>
<circle id="8" cx="265" cy="41" r="5" fill="#3D3B3B" fill-opacity="0.76"/>
<circle id="3" cx="165" cy="41" r="5" fill="#3D3B3B" fill-opacity="0.76"/>
<circle id="6" cx="225" cy="41" r="5" fill="#3D3B3B" fill-opacity="0.76"/>
<circle id="9" cx="285" cy="41" r="5" fill="#3D3B3B" fill-opacity="0.76"/>
</g>
</svg>
